<?xml version="1.0" encoding="UTF-8"?>
<svg version="1.1" xmlns="http://www.w3.org/2000/svg" width="64" height="64">
<path d="M0 0 C4.36634059 2.39853139 6.74803612 5.29001862 9.0625 9.6875 C10.64962648 15.24244269 10.26935907 19.85838982 7.484375 24.984375 C5.19052555 28.17861396 2.56848504 30.95128972 -0.1875 33.75 C-0.70989258 34.28262451 -1.23228516 34.81524902 -1.77050781 35.36401367 C-6.47778546 39.96471426 -6.47778546 39.96471426 -10.1875 40.3125 C-10.27644531 41.13041016 -10.27644531 41.13041016 -10.3671875 41.96484375 C-11.5420205 45.32710391 -13.82884294 47.42767303 -16.3125 49.875 C-17.00472656 50.59719727 -17.00472656 50.59719727 -17.7109375 51.33398438 C-22.12603595 55.74301813 -26.41589349 57.95975008 -32.625 58.75 C-38.34542367 58.04749183 -42.53773247 56.00568247 -46.5625 51.875 C-49.69789513 46.93072306 -50.78873159 43.22461068 -50.1875 37.3125 C-48.13308272 31.25196902 -44.60439046 27.36036423 -40.1875 22.875 C-39.66510742 22.34237549 -39.14271484 21.80975098 -38.60449219 21.26098633 C-33.89721454 16.66028574 -33.89721454 16.66028574 -30.1875 16.3125 C-30.12820312 15.76722656 -30.06890625 15.22195312 -30.0078125 14.66015625 C-28.8329795 11.29789609 -26.54615706 9.19732697 -24.0625 6.75 C-23.60101562 6.26853516 -23.13953125 5.78707031 -22.6640625 5.29101562 C-16.25780849 -1.10643859 -8.58453645 -3.91073327 0 0 Z M-9.1875 13.3125 C-11.38892332 15.7515706 -11.38892332 15.7515706 -13.1875 18.3125 C-11.8675 19.3025 -10.5475 20.2925 -9.1875 21.3125 C-7.04182087 19.58394074 -7.04182087 19.58394074 -5.1875 17.3125 C-5.32391377 15.09391747 -5.32391377 15.09391747 -6.1875 13.3125 C-7.1775 13.3125 -8.1675 13.3125 -9.1875 13.3125 Z M-31.1875 35.3125 C-33.33317913 37.04105926 -33.33317913 37.04105926 -35.1875 39.3125 C-35.05108623 41.53108253 -35.05108623 41.53108253 -34.1875 43.3125 C-31.30174181 42.91446439 -30.36560487 42.52240931 -28.4375 40.25 C-28.025 39.610625 -27.6125 38.97125 -27.1875 38.3125 C-28.5075 37.3225 -29.8275 36.3325 -31.1875 35.3125 Z " fill="#080800" transform="translate(52.1875,3.6875)"/>
<path d="M0 0 C4.77655522 2.43510658 7.56489342 5.22344478 10 10 C10.83275177 15.82926239 9.40989954 18.36898779 6 23 C4.19823391 24.9819427 2.40452983 26.8766069 0.5 28.75 C0.02691406 29.23082031 -0.44617188 29.71164063 -0.93359375 30.20703125 C-4.64925391 33.90210604 -7.16301655 35.79589073 -12.375 36.375 C-16.67080432 35.93060645 -18.67783589 34.70408706 -22 32 C-22.66 31.01 -23.32 30.02 -24 29 C-23.01 27.515 -23.01 27.515 -22 26 C-21.01 26 -20.02 26 -19 26 C-18.5875 26.515625 -18.175 27.03125 -17.75 27.5625 C-15.9553266 29.36048696 -15.9553266 29.36048696 -12.7265625 28.87890625 C-8.39677717 27.85773046 -6.71566364 26.52272204 -3.625 23.375 C-2.34496094 22.11816406 -2.34496094 22.11816406 -1.0390625 20.8359375 C1.38522045 17.46423363 1.81432488 15.11416971 2 11 C1.16666667 8.83333333 1.16666667 8.83333333 -1 8 C-4.55475788 7.93163927 -6.99872231 8.17465179 -9.80078125 10.484375 C-10.38214844 11.04640625 -10.96351562 11.6084375 -11.5625 12.1875 C-13.2890625 13.83203125 -13.2890625 13.83203125 -15 15 C-18.4375 14.375 -18.4375 14.375 -21 13 C-9.77327935 -0.81443995 -9.77327935 -0.81443995 0 0 Z " fill="#F6F600" transform="translate(48,6)"/>
<path d="M0 0 C3.375 1.6875 3.375 1.6875 6 4 C6.875 6.75 6.875 6.75 7 9 C5.1875 9.6875 5.1875 9.6875 3 10 C2.566875 9.505 2.13375 9.01 1.6875 8.5 C-0.03148286 6.62426235 -0.03148286 6.62426235 -3.26953125 7.1171875 C-7.60011225 8.14201609 -9.28324521 9.47616666 -12.375 12.625 C-13.65503906 13.88183594 -13.65503906 13.88183594 -14.9609375 15.1640625 C-17.38522045 18.53576637 -17.81432488 20.88583029 -18 25 C-17.16666667 27.16666667 -17.16666667 27.16666667 -15 28 C-11.44524212 28.06836073 -9.00127769 27.82534821 -6.19921875 25.515625 C-5.61785156 24.95359375 -5.03648438 24.3915625 -4.4375 23.8125 C-2.7109375 22.16796875 -2.7109375 22.16796875 -1 21 C2.4375 21.625 2.4375 21.625 5 23 C-3.21359223 33.10679612 -3.21359223 33.10679612 -9 36 C-13.11498317 36.39567146 -15.47454089 36.26788111 -19.1875 34.375 C-23.37590349 30.83812594 -25.71329047 28.00696671 -26.5 22.5 C-25.57232999 16.00630994 -21.03416964 11.71004152 -16.5 7.25 C-16.02691406 6.76917969 -15.55382813 6.28835937 -15.06640625 5.79296875 C-10.189781 0.94336082 -6.96279103 -0.72028873 0 0 Z " fill="#F7F700" transform="translate(32,22)"/>
<path d="M0 0 C2 3 2 3 1.9453125 6.3203125 C0.8448847 10.60379593 -1.01108941 12.9101596 -4.125 15.875 C-4.58648437 16.3596875 -5.04796875 16.844375 -5.5234375 17.34375 C-9.11744643 20.87851702 -11.99669503 21.91759262 -17 22 C-17.99 21.34 -18.98 20.68 -20 20 C-20 19.34 -20 18.68 -20 18 C-26.39346024 19.27869205 -29.76918673 23.38261496 -34 28 C-34 23.83120555 -32.31280384 22.81458038 -29.4375 19.875 C-28.59058594 18.98554687 -27.74367188 18.09609375 -26.87109375 17.1796875 C-23.45366834 14.58523392 -21.25999242 14.08947475 -17 14 C-16.01 14.66 -15.02 15.32 -14 16 C-14 16.66 -14 17.32 -14 18 C-13.01 17.67 -12.02 17.34 -11 17 C-11.30618405 13.32579134 -11.75771784 12.21864487 -14.5625 9.6875 C-15.366875 9.130625 -16.17125 8.57375 -17 8 C-15.71142987 6.68445979 -14.41904109 5.37265903 -13.125 4.0625 C-12.40570313 3.33160156 -11.68640625 2.60070312 -10.9453125 1.84765625 C-7.25496788 -1.6574301 -4.86826575 -1.0431998 0 0 Z M-6 3 C-8.20142332 5.4390706 -8.20142332 5.4390706 -10 8 C-8.68 8.99 -7.36 9.98 -6 11 C-3.85432087 9.27144074 -3.85432087 9.27144074 -2 7 C-2.13641377 4.78141747 -2.13641377 4.78141747 -3 3 C-3.99 3 -4.98 3 -6 3 Z " fill="#141400" transform="translate(49,14)"/>
</svg>
